<svg id="svg" version="1.1" width="510" height="512" xmlns="http://www.w3.org/2000/svg" xmlns:xlink="http://www.w3.org/1999/xlink" style="display: block;"><g id="svgg"><path id="path0" d="M368.235 1.281 C 365.216 1.905,362.039 2.532,361.176 2.676 C 360.314 2.819,358.291 3.513,356.681 4.218 C 355.071 4.923,353.483 5.440,353.151 5.368 C 352.820 5.296,351.667 5.605,350.588 6.055 C 349.510 6.504,346.333 7.830,343.529 8.999 C 305.286 24.956,262.306 62.297,202.492 131.534 L 193.612 141.813 188.374 142.259 C 185.494 142.504,176.784 142.913,169.020 143.168 C 89.376 145.787,99.515 143.139,75.037 167.715 C 51.206 191.642,50.608 189.156,81.961 196.504 C 107.111 202.397,135.804 209.235,138.209 209.909 C 139.323 210.220,138.680 211.568,134.484 217.714 C 126.854 228.890,126.374 227.803,148.893 250.323 C 171.416 272.846,170.323 272.364,181.519 264.720 L 188.965 259.636 189.723 262.563 C 190.599 265.948,192.496 273.862,196.531 290.980 C 198.108 297.667,200.908 309.490,202.754 317.255 C 204.600 325.020,206.547 333.272,207.080 335.593 C 208.395 341.322,210.251 343.171,213.151 341.641 C 216.755 339.739,249.857 305.823,251.703 302.139 C 253.433 298.689,254.392 282.914,256.052 230.588 C 256.305 222.608,256.713 213.718,256.958 210.834 L 257.404 205.590 267.330 197.049 C 339.942 134.569,381.629 85.025,393.365 47.255 C 394.605 43.265,395.920 40.000,396.287 40.000 C 396.655 40.000,396.794 39.735,396.597 39.412 C 396.400 39.088,396.907 35.824,397.725 32.157 C 399.054 26.198,399.915 10.475,399.097 7.114 C 397.478 0.466,384.271 -2.030,368.235 1.281 M322.959 70.857 C 336.771 80.429,331.719 102.189,315.411 103.369 C 295.471 104.811,287.626 78.813,305.295 69.844 C 310.252 67.328,318.553 67.804,322.959 70.857 M280.224 107.907 C 286.710 110.117,292.549 117.978,292.549 124.498 C 292.549 140.283,273.606 148.536,262.502 137.589 C 248.597 123.881,261.869 101.653,280.224 107.907 M241.616 146.667 C 248.674 148.628,253.794 157.019,253.173 165.607 C 251.642 186.778,219.376 186.006,218.176 164.770 C 217.423 151.434,228.362 142.985,241.616 146.667 M109.347 241.668 C 95.782 248.739,93.333 250.604,93.333 253.864 C 93.333 255.643,143.869 305.882,145.658 305.882 C 148.590 305.882,152.394 300.549,158.937 287.262 C 162.532 279.961,162.483 279.880,141.704 258.934 C 119.135 236.185,119.496 236.377,109.347 241.668 M62.950 272.947 C 45.097 277.625,28.743 289.097,18.492 304.132 C 13.877 310.901,14.003 311.307,19.618 307.763 C 25.766 303.882,35.077 301.096,43.529 300.606 L 50.588 300.197 48.235 302.754 C 46.941 304.160,41.294 308.304,35.686 311.962 C 16.537 324.452,14.477 327.297,10.275 347.059 C 8.476 355.520,8.623 355.982,11.270 350.200 C 13.757 344.768,20.592 337.907,25.314 336.104 C 29.442 334.528,34.186 334.728,33.975 336.471 C 33.690 338.817,31.319 352.654,30.480 356.863 C 28.952 364.534,23.165 371.919,13.725 378.243 C 11.137 379.978,8.082 382.264,6.936 383.324 C 5.790 384.384,4.555 385.305,4.191 385.371 C 3.827 385.436,3.610 385.733,3.709 386.029 C 3.955 386.768,1.119 393.012,0.715 392.620 C 0.538 392.447,0.370 394.390,0.343 396.937 C 0.285 402.435,0.173 402.388,3.986 398.458 C 8.171 394.147,13.062 391.878,23.550 389.384 C 42.557 384.865,61.549 374.163,68.091 364.285 C 69.391 362.323,70.612 360.997,70.805 361.339 C 73.751 366.562,69.737 375.934,59.284 388.235 C 53.926 394.542,54.427 394.743,64.326 390.266 C 81.339 382.572,87.337 376.240,96.150 356.667 C 100.339 347.363,100.822 346.887,101.725 351.176 C 103.316 358.737,101.597 368.653,97.177 377.410 C 93.976 383.750,95.185 383.124,102.794 374.501 C 119.454 355.620,127.020 339.754,127.047 323.643 C 127.063 314.201,123.862 302.687,120.674 300.716 C 120.167 300.403,119.966 300.487,120.225 300.905 C 122.856 305.163,116.289 330.409,110.782 337.210 L 109.242 339.112 108.308 332.497 C 105.783 314.612,102.434 315.162,96.099 334.502 C 92.753 344.715,90.536 348.719,86.144 352.478 C 82.218 355.839,81.987 355.744,83.521 351.396 C 89.955 333.162,77.285 332.370,58.354 349.824 C 55.724 352.249,52.454 355.029,51.088 356.002 L 48.605 357.770 49.363 355.944 C 49.780 354.939,50.500 350.941,50.963 347.059 C 51.993 338.425,55.177 331.416,61.529 323.797 C 63.923 320.925,65.882 318.230,65.882 317.810 C 65.882 315.951,55.122 316.330,49.891 318.374 C 46.111 319.851,46.717 318.935,54.278 311.739 C 64.679 301.841,74.784 295.980,85.294 293.750 C 93.119 292.089,82.031 286.963,70.416 286.871 L 63.212 286.815 66.259 284.181 C 71.661 279.511,82.726 275.294,89.577 275.294 C 94.103 275.294,93.132 274.063,87.486 272.644 C 80.710 270.942,70.100 271.073,62.950 272.947 " stroke="none" fill="#000000" fill-rule="evenodd"></path><path id="path1" d="M240.343 89.608 L 238.039 92.157 240.588 89.853 C 242.964 87.706,243.498 87.059,242.892 87.059 C 242.757 87.059,241.610 88.206,240.343 89.608 M1.961 388.235 C 1.666 389.163,1.602 390.099,1.818 390.314 C 2.033 390.530,2.451 389.947,2.745 389.020 C 3.040 388.092,3.104 387.156,2.888 386.941 C 2.673 386.725,2.255 387.308,1.961 388.235 " stroke="none" fill="#191919" fill-rule="evenodd"></path><path id="path2" d="M328.417 15.322 C 326.807 16.416,325.490 17.495,325.490 17.720 C 325.490 18.301,330.155 15.488,331.137 14.314 C 332.355 12.857,331.674 13.109,328.417 15.322 M266.616 61.851 C 258.663 69.556,246.355 81.997,239.263 89.498 C 224.018 105.624,228.967 100.936,259.056 70.747 C 284.467 45.252,281.933 47.843,281.452 47.843 C 281.244 47.843,274.568 54.147,266.616 61.851 M383.791 69.608 C 383.052 70.794,382.073 72.294,381.616 72.941 C 380.886 73.973,380.959 73.980,382.209 72.998 C 383.626 71.884,386.279 67.451,385.528 67.451 C 385.312 67.451,384.530 68.422,383.791 69.608 M301.604 72.977 C 299.302 75.154,297.231 77.713,297.000 78.664 C 296.613 80.263,296.679 80.246,297.883 78.431 C 299.540 75.934,303.353 72.115,305.882 70.418 C 306.961 69.694,307.381 69.083,306.816 69.061 C 306.251 69.038,303.905 70.801,301.604 72.977 M327.559 94.879 C 326.414 96.610,324.061 98.963,322.330 100.108 C 320.600 101.253,319.356 102.363,319.567 102.574 C 320.075 103.082,323.318 100.924,325.847 98.396 C 328.375 95.867,330.533 92.624,330.025 92.116 C 329.814 91.905,328.704 93.149,327.559 94.879 M266.017 109.048 C 262.738 111.048,259.778 114.210,258.335 117.255 L 257.221 119.608 259.003 117.278 C 261.330 114.234,264.191 111.394,267.081 109.259 C 270.030 107.082,269.436 106.964,266.017 109.048 M324.127 144.510 C 295.715 172.959,291.528 177.309,303.554 165.886 C 323.740 146.711,352.477 117.647,351.250 117.647 C 351.087 117.647,338.882 129.735,324.127 144.510 M289.055 133.278 C 287.985 134.972,286.199 137.002,285.087 137.787 C 280.469 141.048,279.336 142.171,281.961 140.888 C 284.579 139.608,289.521 134.680,290.915 131.961 C 292.394 129.076,291.152 129.955,289.055 133.278 M227.843 147.404 C 225.791 148.238,218.812 155.718,218.865 157.025 C 218.887 157.583,219.498 157.157,220.222 156.078 C 221.908 153.565,225.722 149.751,228.235 148.065 C 230.382 146.624,230.261 146.421,227.843 147.404 M249.912 172.526 C 248.767 174.257,246.414 176.610,244.683 177.755 C 242.953 178.900,241.709 180.010,241.920 180.221 C 242.853 181.154,249.887 174.885,252.033 171.210 C 253.581 168.557,251.812 169.655,249.912 172.526 M96.294 247.497 C 94.395 248.528,91.998 251.579,92.682 252.095 C 92.824 252.202,94.307 250.937,95.977 249.282 C 99.344 245.946,99.365 245.831,96.294 247.497 M52.111 275.661 C 51.273 276.295,50.962 276.824,51.419 276.838 C 51.875 276.852,52.934 276.345,53.772 275.711 C 54.609 275.078,54.920 274.548,54.464 274.535 C 54.007 274.521,52.948 275.028,52.111 275.661 M79.020 295.443 C 78.265 295.640,77.647 296.095,77.647 296.455 C 77.647 297.262,80.649 296.540,81.235 295.592 C 81.680 294.871,81.303 294.846,79.020 295.443 M149.620 303.556 C 146.593 306.772,146.479 307.242,149.063 305.859 C 150.265 305.216,153.600 300.316,152.765 300.419 C 152.646 300.434,151.231 301.845,149.620 303.556 M20.510 307.456 C 18.720 308.753,17.255 309.976,17.255 310.175 C 17.255 310.766,22.543 307.463,23.563 306.234 C 25.004 304.497,24.087 304.865,20.510 307.456 M29.020 314.847 C 27.510 315.845,25.569 317.465,24.706 318.447 C 23.717 319.573,24.659 319.148,27.253 317.299 C 32.845 313.313,34.211 311.417,29.020 314.847 M102.201 319.412 C 101.320 320.382,99.982 322.235,99.228 323.529 C 97.933 325.749,97.993 325.727,100.279 323.137 C 101.612 321.627,102.712 320.116,102.724 319.779 C 102.736 319.441,103.539 318.846,104.510 318.456 C 105.630 318.005,105.823 317.728,105.039 317.697 C 104.359 317.669,103.082 318.441,102.201 319.412 M16.301 326.863 C 14.690 328.709,12.980 332.076,13.960 331.470 C 14.735 330.991,18.214 325.490,17.742 325.490 C 17.608 325.490,16.959 326.108,16.301 326.863 M53.551 336.667 C 52.626 337.862,51.682 340.392,52.161 340.392 C 52.352 340.392,53.056 339.333,53.725 338.039 C 54.978 335.618,54.891 334.935,53.551 336.667 M20.224 339.420 C 18.191 341.033,15.423 343.941,14.074 345.882 L 11.620 349.412 14.782 346.031 C 16.521 344.172,19.466 341.274,21.325 339.593 C 25.627 335.701,25.030 335.608,20.224 339.420 M56.953 349.472 C 49.873 355.787,47.985 357.781,50.476 356.313 C 54.132 354.159,66.157 342.745,64.771 342.745 C 64.619 342.745,61.100 345.772,56.953 349.472 M122.553 346.078 C 121.061 347.963,119.805 350.801,120.712 350.241 C 121.189 349.946,122.116 348.668,122.771 347.401 C 124.006 345.013,123.901 344.376,122.553 346.078 M86.642 350.705 C 83.176 354.277,82.710 354.976,84.849 353.398 C 87.282 351.603,92.409 345.882,91.584 345.882 C 91.441 345.882,89.217 348.053,86.642 350.705 M96.671 356.275 C 95.178 358.159,93.923 360.997,94.829 360.437 C 95.307 360.142,96.233 358.864,96.888 357.597 C 98.124 355.209,98.019 354.572,96.671 356.275 M26.388 364.510 C 24.612 367.307,20.198 371.683,12.502 378.278 L 9.020 381.263 12.157 379.116 C 16.497 376.145,26.540 366.341,27.921 363.725 C 29.590 360.566,28.556 361.094,26.388 364.510 M99.635 369.360 C 98.642 371.217,98.596 371.998,99.513 371.431 C 100.205 371.003,101.284 367.843,100.738 367.843 C 100.578 367.843,100.082 368.526,99.635 369.360 M35.640 386.250 C 34.803 386.883,34.491 387.412,34.948 387.426 C 35.405 387.440,36.464 386.933,37.301 386.299 C 38.138 385.666,38.450 385.137,37.993 385.123 C 37.536 385.109,36.477 385.616,35.640 386.250 M61.067 392.196 L 59.216 393.803 61.765 392.568 C 64.273 391.352,64.987 390.588,63.616 390.588 C 63.233 390.588,62.086 391.312,61.067 392.196 " stroke="none" fill="#333333" fill-rule="evenodd"></path><path id="path3" d="M281.155 48.824 L 275.686 54.510 281.373 49.041 C 286.654 43.961,287.417 43.137,286.842 43.137 C 286.722 43.137,284.163 45.696,281.155 48.824 M227.059 102.745 C 221.896 107.922,217.848 112.157,218.064 112.157 C 218.279 112.157,222.680 107.922,227.843 102.745 C 233.006 97.569,237.054 93.333,236.838 93.333 C 236.623 93.333,232.222 97.569,227.059 102.745 M350.175 117.843 L 344.706 123.529 350.392 118.060 C 353.520 115.052,356.078 112.493,356.078 112.374 C 356.078 111.799,355.255 112.562,350.175 117.843 M296.078 171.765 C 290.915 176.941,286.868 181.176,287.083 181.176 C 287.299 181.176,291.700 176.941,296.863 171.765 C 302.026 166.588,306.074 162.353,305.858 162.353 C 305.642 162.353,301.241 166.588,296.078 171.765 M20.369 322.157 L 15.294 327.451 20.588 322.376 C 23.500 319.584,25.882 317.202,25.882 317.081 C 25.882 316.504,25.084 317.239,20.369 322.157 M21.150 371.569 L 16.863 376.078 21.373 371.791 C 23.853 369.434,25.882 367.404,25.882 367.282 C 25.882 366.700,25.132 367.379,21.150 371.569 M8.198 381.373 L 5.098 384.706 8.431 381.606 C 11.531 378.722,12.125 378.039,11.532 378.039 C 11.404 378.039,9.904 379.539,8.198 381.373 " stroke="none" fill="#373737" fill-rule="evenodd"></path><path id="path4" d="M286.637 44.118 L 282.745 48.235 286.863 44.343 C 289.127 42.203,290.980 40.350,290.980 40.226 C 290.980 39.640,290.254 40.291,286.637 44.118 M218.808 111.961 L 211.373 119.608 219.020 112.172 C 223.225 108.083,226.667 104.642,226.667 104.525 C 226.667 103.957,225.714 104.858,218.808 111.961 M354.872 112.353 L 350.980 116.471 355.098 112.579 C 357.363 110.438,359.216 108.585,359.216 108.461 C 359.216 107.876,358.489 108.527,354.872 112.353 M287.043 180.196 L 279.608 187.843 287.255 180.408 C 291.461 176.318,294.902 172.877,294.902 172.761 C 294.902 172.192,293.949 173.094,287.043 180.196 M19.566 322.157 L 16.863 325.098 19.804 322.395 C 22.542 319.879,23.106 319.216,22.507 319.216 C 22.376 319.216,21.052 320.539,19.566 322.157 " stroke="none" fill="#555500" fill-rule="evenodd"></path></g></svg>